<?xml version="1.0" ?><!-- Uploaded to: SVG Repo, www.svgrepo.com, Generator: SVG Repo Mixer Tools -->
<svg width="800px" height="800px" viewBox="0 0 24 24" fill="none" xmlns="http://www.w3.org/2000/svg"><path d="M4 21V18.5C4 15.4624 6.46243 13 9.5 13H15M8 21V18M16.5 17V15M16.5 19.2V19M16 6.5C16 8.70914 14.2091 10.5 12 10.5C9.79086 10.5 8 8.70914 8 6.5C8 4.29086 9.79086 2.5 12 2.5C14.2091 2.5 16 4.29086 16 6.5ZM12.309 21H20.691C21.0627 21 21.3044 20.6088 21.1382 20.2764L16.9472 11.8944C16.763 11.5259 16.237 11.5259 16.0528 11.8944L11.8618 20.2764C11.6956 20.6088 11.9373 21 12.309 21Z" stroke="#000000" stroke-linecap="round" stroke-linejoin="round" stroke-width="1.4"/></svg>